<mxfile host="app.diagrams.net" agent="Mozilla/5.0 (X11; Ubuntu; Linux x86_64; rv:142.0) Gecko/20100101 Firefox/142.0" version="28.2.1">
  <diagram name="Page-1" id="XCabEsz14lC1qjqIhGBI">
    <mxGraphModel dx="1097" dy="635" grid="1" gridSize="10" guides="1" tooltips="1" connect="1" arrows="1" fold="1" page="1" pageScale="1" pageWidth="827" pageHeight="1169" math="0" shadow="0">
      <root>
        <mxCell id="0" />
        <mxCell id="1" parent="0" />
        <mxCell id="REv2fPENQQuzKjxyFJVk-32" value="" style="html=1;dropTarget=0;whiteSpace=wrap;" vertex="1" parent="1">
          <mxGeometry x="290" y="380" width="300" height="310" as="geometry" />
        </mxCell>
        <mxCell id="REv2fPENQQuzKjxyFJVk-33" value="" style="shape=module;jettyWidth=8;jettyHeight=4;" vertex="1" parent="REv2fPENQQuzKjxyFJVk-32">
          <mxGeometry x="1" width="20" height="20" relative="1" as="geometry">
            <mxPoint x="-27" y="7" as="offset" />
          </mxGeometry>
        </mxCell>
        <mxCell id="REv2fPENQQuzKjxyFJVk-2" value="&lt;div&gt;«component»&lt;b&gt;&lt;br&gt;&lt;/b&gt;&lt;/div&gt;&lt;div&gt;&lt;b&gt;Common Model&lt;/b&gt;&lt;/div&gt;" style="html=1;dropTarget=0;whiteSpace=wrap;" vertex="1" parent="1">
          <mxGeometry x="30" y="440.5" width="140" height="80" as="geometry" />
        </mxCell>
        <mxCell id="REv2fPENQQuzKjxyFJVk-3" value="" style="shape=module;jettyWidth=8;jettyHeight=4;" vertex="1" parent="REv2fPENQQuzKjxyFJVk-2">
          <mxGeometry x="1" width="20" height="20" relative="1" as="geometry">
            <mxPoint x="-27" y="7" as="offset" />
          </mxGeometry>
        </mxCell>
        <mxCell id="REv2fPENQQuzKjxyFJVk-4" value="" style="html=1;verticalAlign=bottom;labelBackgroundColor=none;endArrow=oval;endFill=0;endSize=8;rounded=0;" edge="1" parent="1">
          <mxGeometry width="160" relative="1" as="geometry">
            <mxPoint x="170" y="480.21" as="sourcePoint" />
            <mxPoint x="200" y="480.21" as="targetPoint" />
          </mxGeometry>
        </mxCell>
        <mxCell id="REv2fPENQQuzKjxyFJVk-5" value="Common Facade" style="text;html=1;align=center;verticalAlign=middle;whiteSpace=wrap;rounded=0;fontSize=8;" vertex="1" parent="1">
          <mxGeometry x="170" y="440" width="60" height="30" as="geometry" />
        </mxCell>
        <mxCell id="REv2fPENQQuzKjxyFJVk-6" value="&lt;div&gt;«component»&lt;b&gt;&lt;br&gt;&lt;/b&gt;&lt;/div&gt;&lt;div&gt;&lt;b&gt;View&lt;/b&gt;&lt;/div&gt;" style="html=1;dropTarget=0;whiteSpace=wrap;" vertex="1" parent="1">
          <mxGeometry x="420" y="600" width="140" height="70" as="geometry" />
        </mxCell>
        <mxCell id="REv2fPENQQuzKjxyFJVk-7" value="" style="shape=module;jettyWidth=8;jettyHeight=4;" vertex="1" parent="REv2fPENQQuzKjxyFJVk-6">
          <mxGeometry x="1" width="20" height="20" relative="1" as="geometry">
            <mxPoint x="-27" y="7" as="offset" />
          </mxGeometry>
        </mxCell>
        <mxCell id="REv2fPENQQuzKjxyFJVk-8" value="&lt;div&gt;«component»&lt;b&gt;&lt;br&gt;&lt;/b&gt;&lt;/div&gt;&lt;div&gt;&lt;b&gt;ViewModel&lt;/b&gt;&lt;/div&gt;" style="html=1;dropTarget=0;whiteSpace=wrap;" vertex="1" parent="1">
          <mxGeometry x="420" y="445.5" width="140" height="70" as="geometry" />
        </mxCell>
        <mxCell id="REv2fPENQQuzKjxyFJVk-9" value="" style="shape=module;jettyWidth=8;jettyHeight=4;" vertex="1" parent="REv2fPENQQuzKjxyFJVk-8">
          <mxGeometry x="1" width="20" height="20" relative="1" as="geometry">
            <mxPoint x="-27" y="7" as="offset" />
          </mxGeometry>
        </mxCell>
        <mxCell id="REv2fPENQQuzKjxyFJVk-12" value="" style="html=1;verticalAlign=bottom;labelBackgroundColor=none;endArrow=oval;endFill=0;endSize=8;rounded=0;" edge="1" parent="1" source="REv2fPENQQuzKjxyFJVk-8">
          <mxGeometry width="160" relative="1" as="geometry">
            <mxPoint x="270" y="525" as="sourcePoint" />
            <mxPoint x="470" y="560" as="targetPoint" />
          </mxGeometry>
        </mxCell>
        <mxCell id="REv2fPENQQuzKjxyFJVk-13" value="Signals, Event Handlers" style="text;html=1;align=center;verticalAlign=middle;whiteSpace=wrap;rounded=0;fontSize=8;" vertex="1" parent="1">
          <mxGeometry x="400" y="540" width="60" height="30" as="geometry" />
        </mxCell>
        <mxCell id="REv2fPENQQuzKjxyFJVk-14" value="" style="html=1;verticalAlign=bottom;labelBackgroundColor=none;endArrow=oval;endFill=0;endSize=8;rounded=0;" edge="1" parent="1" source="REv2fPENQQuzKjxyFJVk-6">
          <mxGeometry width="160" relative="1" as="geometry">
            <mxPoint x="489" y="590" as="sourcePoint" />
            <mxPoint x="510" y="560" as="targetPoint" />
          </mxGeometry>
        </mxCell>
        <mxCell id="REv2fPENQQuzKjxyFJVk-15" value="Events" style="text;html=1;align=center;verticalAlign=middle;whiteSpace=wrap;rounded=0;fontSize=8;" vertex="1" parent="1">
          <mxGeometry x="520" y="540" width="40" height="30" as="geometry" />
        </mxCell>
        <mxCell id="REv2fPENQQuzKjxyFJVk-16" value="" style="rounded=0;orthogonalLoop=1;jettySize=auto;html=1;endArrow=halfCircle;endFill=0;endSize=6;strokeWidth=1;sketch=0;fontSize=12;" edge="1" parent="1" source="REv2fPENQQuzKjxyFJVk-6">
          <mxGeometry relative="1" as="geometry">
            <mxPoint x="590" y="605" as="sourcePoint" />
            <mxPoint x="470" y="560" as="targetPoint" />
          </mxGeometry>
        </mxCell>
        <mxCell id="REv2fPENQQuzKjxyFJVk-17" value="" style="rounded=0;orthogonalLoop=1;jettySize=auto;html=1;endArrow=halfCircle;endFill=0;endSize=6;strokeWidth=1;sketch=0;fontSize=12;" edge="1" parent="1" source="REv2fPENQQuzKjxyFJVk-8">
          <mxGeometry relative="1" as="geometry">
            <mxPoint x="491" y="660" as="sourcePoint" />
            <mxPoint x="510" y="560" as="targetPoint" />
          </mxGeometry>
        </mxCell>
        <mxCell id="REv2fPENQQuzKjxyFJVk-20" value="" style="rounded=0;orthogonalLoop=1;jettySize=auto;html=1;endArrow=halfCircle;endFill=0;endSize=6;strokeWidth=1;sketch=0;fontSize=12;" edge="1" parent="1" source="REv2fPENQQuzKjxyFJVk-8">
          <mxGeometry relative="1" as="geometry">
            <mxPoint x="509" y="590" as="sourcePoint" />
            <mxPoint x="380" y="480" as="targetPoint" />
          </mxGeometry>
        </mxCell>
        <mxCell id="REv2fPENQQuzKjxyFJVk-30" value="" style="html=1;rounded=0;" vertex="1" parent="1">
          <mxGeometry x="280" y="470" width="20" height="21" as="geometry" />
        </mxCell>
        <mxCell id="REv2fPENQQuzKjxyFJVk-31" value="&lt;div&gt;&lt;div&gt;«delegate»&lt;/div&gt;&lt;/div&gt;" style="rounded=0;orthogonalLoop=1;jettySize=auto;html=1;dashed=1;dashPattern=8 8;spacingBottom=22;" edge="1" parent="1" target="REv2fPENQQuzKjxyFJVk-30">
          <mxGeometry relative="1" as="geometry">
            <mxPoint x="400" y="565" as="targetPoint" />
            <mxPoint x="380" y="480" as="sourcePoint" />
          </mxGeometry>
        </mxCell>
        <mxCell id="REv2fPENQQuzKjxyFJVk-34" value="&lt;div&gt;&lt;div&gt;«component»&lt;/div&gt;&lt;/div&gt;&lt;div&gt;&lt;b&gt;Passive Client&lt;/b&gt;&lt;/div&gt;" style="text;html=1;align=center;verticalAlign=middle;whiteSpace=wrap;rounded=0;" vertex="1" parent="1">
          <mxGeometry x="300" y="380" width="100" height="50" as="geometry" />
        </mxCell>
        <mxCell id="REv2fPENQQuzKjxyFJVk-35" value="&lt;div&gt;&lt;div&gt;«delegate»&lt;/div&gt;&lt;/div&gt;" style="rounded=0;orthogonalLoop=1;jettySize=auto;html=1;dashed=1;dashPattern=8 8;spacingBottom=22;" edge="1" parent="1" source="REv2fPENQQuzKjxyFJVk-30">
          <mxGeometry relative="1" as="geometry">
            <mxPoint x="200" y="480" as="targetPoint" />
            <mxPoint x="270" y="540" as="sourcePoint" />
          </mxGeometry>
        </mxCell>
      </root>
    </mxGraphModel>
  </diagram>
</mxfile>
